{"title":"Ghost Rider Spirit of Vengeance 2011 BRRip XViD AC3-ADTRG","uid":7299210,"size":1568599554,"categoryP":"video","categoryS":"movies","magnet":"?xt=urn:btih:bb21aa81e42832e634f21f5280522b9f7d427e2a&amp;dn=Ghost+Rider+Spirit+of+Vengeance+2011+BRRip+XViD+AC3-ADTRG&amp;tr=udp%3A%2F%2Ftracker.openbittorrent.com%3A80&amp;tr=udp%3A%2F%2Fopen.demonii.com%3A1337&amp;tr=udp%3A%2F%2Ftracker.coppersurfer.tk%3A6969&amp;tr=udp%3A%2F%2Fexodus.desync.com%3A6969","seeders":0,"leechers":1,"uploader":"ThumperTM","files":-1,"time":1337981364,"description":"===================================================================\nGet all ThumperDCs newest releases first at: &lt;a href=&quot; http://thumperdc.org/&quot; rel=&quot;nofollow&quot; target=&quot;_NEW&quot;&gt; http://thumperdc.org/&lt;/a&gt;\t\n===================================================================\n\nGhost.Rider.Spirit.of.Vengeance.2011.BRRip.XViD.AC3-ADTRG\n\nAs Johnny Blaze hides out in Eastern Europe, he is called upon to stop the devil, who is trying to take human form.\n &lt;a href=&quot;\nhttp://www.imdb.com/title/tt1071875/&quot; rel=&quot;nofollow&quot; target=&quot;_NEW&quot;&gt;\nhttp://www.imdb.com/title/tt1071875/&lt;/a&gt;\n\nSource -   Ghost Rider Spirit Of Vengeance 2011 720p BluRay X264-SPARKS  Thanks\n\nComplete name                            : Ghost.Rider.Spirit.of.Vengeance.2011.BRRip.XViD.AC3-ADTRG.avi\nFormat                                   : AVI\nFormat/Info                              : Audio Video Interleave\nFile size                                : 1.46 GiB\nDuration                                 : 1h 35mn\nOverall bit rate                         : 2 189 Kbps\nWriting library                          : VirtualDub build 34703/release\n\nVideo\nID                                       : 0\nFormat                                   : MPEG-4 Visual\nCodec ID                                 : XVID\nBit rate                                 : 1 796 Kbps\nWidth                                    : 720 pixels\nHeight                                   : 304 pixels\nDisplay aspect ratio                     : 2.35:1\nFrame rate                               : 23.976 fps\nStream size                              : 1.20 GiB (82%)\n\nAudio\nID                                       : 1\nFormat                                   : AC-3\nBit rate                                 : 384 Kbps\nChannel(s)                               : 6 channels\nChannel positions                        : Front: L C R, Side: L R, LFE\nSampling rate                            : 48.0 KHz\nStream size                              : 262 MiB (18%)\n\nScreens: http://screensnapr.com/e/ECmqcF.jpg\n\nIMDB: http://www.imdb.com/title/tt1071875/\n\n====================================================================================\nNote: If You Have Problem With Any Of my Torrents Register To My Site And PM Me About Your  Problem: &lt;a href=&quot; http://thumperdc.org/&quot; rel=&quot;nofollow&quot; target=&quot;_NEW&quot;&gt; http://thumperdc.org/&lt;/a&gt;\t\n====================================================================================","torrent":{"xt":"urn:btih:bb21aa81e42832e634f21f5280522b9f7d427e2a","amp;dn":"Ghost+Rider+Spirit+of+Vengeance+2011+BRRip+XViD+AC3-ADTRG","amp;tr":["udp%3A%2F%2Ftracker.openbittorrent.com%3A80","udp%3A%2F%2Fopen.demonii.com%3A1337","udp%3A%2F%2Ftracker.coppersurfer.tk%3A6969","udp%3A%2F%2Fexodus.desync.com%3A6969"],"infoHash":"bb21aa81e42832e634f21f5280522b9f7d427e2a","infoHashBuffer":{"type":"Buffer","data":[187,33,170,129,228,40,50,230,52,242,31,82,128,82,43,159,125,66,126,42]},"announce":[],"urlList":[]}}